<svg width="128" height="30" viewBox="0 0 128 30" fill="none" xmlns="http://www.w3.org/2000/svg">
<g clip-path="url(#clip0_4808_4598)">
<path d="M122.852 17.2317V9.48875H127.84V5.91935H122.852V0.849609L118.778 2.02908V5.91714H115.778V9.48654H118.778V17.2627C118.778 22.266 122.852 24.147 127.998 22.6798V18.6634C124.461 19.938 122.852 18.7918 122.852 17.2295" fill="#FAFAFA"/>
<path d="M80.9787 5.66289C78.8321 5.66289 77.1592 6.45953 75.9576 7.73416V5.91737H71.853V19.2943C71.535 19.3629 71.2061 19.4028 70.8707 19.4028C68.8293 19.4028 67.5685 18.6415 67.5576 16.4707V5.91737H63.4507V7.76514C62.2514 6.49051 60.5477 5.62969 58.4296 5.62969C53.8842 5.62969 50.126 9.45358 50.126 14.3618C50.126 15.6187 50.3935 16.8203 50.8715 17.9113C50.512 18.2963 50.0975 18.6039 49.6239 18.8208C49.0823 19.0686 48.464 19.3696 47.7646 19.3696H47.7624C45.8372 19.5001 44.9382 18.3959 44.9382 17.2319V9.48677H49.9287V5.91737H44.9382V0.852051L40.8643 2.03152V5.91958H37.8648V9.48898H40.8643V17.2651C40.8643 17.7763 40.9082 18.2565 40.9893 18.7013C40.2635 19.1461 39.4216 19.405 38.527 19.405C36.4856 19.405 35.2248 18.6437 35.2139 16.4729V5.91737H31.107V7.76514C29.9077 6.49051 28.2018 5.62969 26.0859 5.62969C21.5405 5.62969 17.7823 9.45358 17.7823 14.3618C17.7823 19.27 21.5405 23.0629 26.0859 23.0629C28.2018 23.0629 29.9077 22.2353 31.107 20.9916C31.107 20.9916 31.6552 20.4915 32.245 19.8365C33.5255 21.8502 35.5033 23.1647 38.1147 23.1647C39.893 23.1647 41.3774 22.5783 42.5198 21.6555C43.5942 22.669 45.1268 23.178 46.9314 23.1647C47.6834 23.1603 48.4859 23.0629 49.3213 22.8748C49.5713 22.8018 49.8235 22.7066 50.0822 22.5893C50.9 22.222 51.7661 21.6223 52.7484 20.6597C54.2394 22.1401 56.2413 23.0629 58.4274 23.0629C60.6135 23.0629 62.2492 22.2353 63.4486 20.9916C63.4486 20.9916 63.9967 20.4915 64.5865 19.8365C65.867 21.8502 67.8448 23.1647 70.4562 23.1647C70.943 23.1647 71.4078 23.1182 71.8508 23.0363V29.5002H75.9554V20.9274C77.157 22.2353 78.8606 23.0629 80.9765 23.0629C82.6934 23.0629 84.2984 22.5229 85.6293 21.5869C86.6402 20.8765 87.4931 19.9383 88.1202 18.834C88.8591 17.5373 89.2823 16.0148 89.2823 14.364C89.2823 9.64831 85.5241 5.6651 80.9765 5.6651M30.8812 16.4729H30.8724C30.8724 16.4729 30.8724 16.4795 30.8746 16.4839C30.0831 18.1348 28.4035 19.3032 26.4959 19.3032C23.7178 19.3032 21.6326 17.0394 21.6326 14.364C21.6326 11.6886 23.7178 9.39162 26.4959 9.39162C29.274 9.39162 31.3592 11.6864 31.3592 14.364C31.3592 15.1142 31.186 15.8289 30.879 16.4729M63.2249 16.4729C63.2249 16.4729 63.2205 16.4795 63.2205 16.4839C62.429 18.1348 60.7494 19.3032 58.8418 19.3032C56.0637 19.3032 53.9785 17.0394 53.9785 14.364C53.9785 11.6886 56.0637 9.39162 58.8418 9.39162C61.6199 9.39162 63.7051 11.6864 63.7051 14.364C63.7051 15.1142 63.5319 15.8289 63.2249 16.4729ZM85.0066 16.4021C84.647 17.2253 84.0748 17.9356 83.349 18.4534C82.5728 19.0066 81.619 19.3342 80.5687 19.3342C77.8849 19.3342 75.7054 17.0394 75.7054 14.3618C75.7054 11.6842 77.9156 9.3894 80.5687 9.3894C83.2218 9.3894 85.432 11.6842 85.432 14.3618C85.432 15.0832 85.2807 15.7736 85.0066 16.4021Z" fill="#FAFAFA"/>
<path d="M102.991 14.6139C102.991 17.1941 101.351 19.2322 98.8553 19.2322C96.8666 19.2322 95.1629 17.7031 95.1629 15.2512V5.91943H91.0605V16.3355C91.0605 20.5732 94.4065 23.0893 98.0375 23.0893C100.278 23.0893 101.921 22.1023 102.993 20.8919V22.8038H107.095V5.91943H102.993V14.6161L102.991 14.6139Z" fill="#FAFAFA"/>
<path d="M19.0716 0.5H13.8312L4.29539 11.4959V0.5H0V22.8082H4.29539V17.2627L7.20064 13.981L14.0834 22.8082H19.326L9.97872 10.7944L19.0716 0.5Z" fill="#FAFAFA"/>
<path d="M114.121 0.5H110.016V22.8082H114.121V0.5Z" fill="#FAFAFA"/>
</g>
<defs>
<clipPath id="clip0_4808_4598">
<rect width="128" height="29" fill="white" transform="translate(0 0.5)"/>
</clipPath>
</defs>
</svg>
